<?xml version="1.0" encoding="UTF-8"?>
<!DOCTYPE svg PUBLIC "-//W3C//DTD SVG 1.1//EN" "http://www.w3.org/Graphics/SVG/1.1/DTD/svg11.dtd">
<!-- Creator: CorelDRAW X7 -->
<svg xmlns="http://www.w3.org/2000/svg" xml:space="preserve" width="11.7765mm" height="7.2772mm" version="1.1" style="shape-rendering:geometricPrecision; text-rendering:geometricPrecision; image-rendering:optimizeQuality; fill-rule:evenodd; clip-rule:evenodd"
viewBox="0 0 123 76"
 xmlns:xlink="http://www.w3.org/1999/xlink">
 <defs>
  <style type="text/css">
   <![CDATA[
    .fil0 {fill:url(#id0)}
   ]]>
  </style>
  <linearGradient id="id0" gradientUnits="userSpaceOnUse" x1="61.278" y1="66.6448" x2="61.278" y2="9.08835">
   <stop offset="0" style="stop-opacity:1; stop-color:#DA9A25"/>
   <stop offset="1" style="stop-opacity:1; stop-color:#FFC600"/>
  </linearGradient>
 </defs>
 <g id="图层_x0020_1">
  <metadata id="CorelCorpID_0Corel-Layer"/>
  <path class="fil0" d="M11 36c-4,2 -9,0 -10,-4 -2,-4 0,-9 4,-10 4,-2 8,0 10,4 1,4 0,9 -4,10zm12 38c0,0 -1,0 -1,-1l-11 -32c1,-1 2,-1 3,-2 5,5 12,8 19,8 16,0 24,-14 26,-27 1,0 1,0 2,0 1,0 2,0 3,0 1,13 10,27 25,27 7,0 14,-3 19,-8 1,1 2,1 4,2l-9 32c-1,1 -1,2 -1,3 -10,-7 -24,-12 -41,-12 -15,0 -29,4 -38,10zm89 -38c4,2 8,0 10,-4 2,-4 0,-9 -4,-10 -4,-2 -9,0 -10,4 -2,4 0,9 4,10zm-51 -36c-4,0 -8,4 -8,8 0,4 4,8 8,8 5,0 8,-4 8,-8 0,-4 -3,-8 -8,-8z"/>
 </g>
</svg>
